<?xml version="1.0" standalone="no"?>
<!DOCTYPE svg PUBLIC "-//W3C//DTD SVG 20010904//EN"
 "http://www.w3.org/TR/2001/REC-SVG-20010904/DTD/svg10.dtd">
<svg version="1.0" xmlns="http://www.w3.org/2000/svg"
 width="959.000000pt" height="959.000000pt" viewBox="0 0 959.000000 959.000000"
 preserveAspectRatio="xMidYMid meet">

<g transform="translate(0.000000,959.000000) scale(0.100000,-0.100000)"
fill="#000000" stroke="none">
<path d="M0 6656 l0 -2934 73 23 c39 13 110 37 157 54 76 28 150 40 150 25 0
-9 -60 -113 -170 -296 -88 -144 -107 -182 -104 -208 6 -46 10 -50 65 -50 27 0
49 -5 49 -10 0 -15 -45 -30 -89 -30 -21 0 -59 -3 -85 -6 -41 -6 -46 -10 -46
-32 l0 -25 123 6 c81 3 114 2 97 -5 -33 -12 -61 -38 -54 -50 3 -5 0 -16 -7
-24 -11 -13 -6 -14 38 -8 41 5 51 3 56 -10 5 -12 -3 -20 -30 -31 -19 -8 -41
-15 -48 -15 -8 0 -15 -5 -17 -12 -3 -8 -33 -14 -81 -16 l-77 -4 0 -50 0 -49
47 7 c27 4 50 10 53 14 3 4 30 10 60 13 41 4 47 4 25 -3 -25 -7 -20 -8 28 -7
31 1 57 -1 57 -4 0 -12 -174 -51 -178 -40 -5 14 -79 14 -87 1 -4 -6 5 -10 19
-10 14 0 26 -4 26 -10 0 -5 -11 -10 -25 -10 -25 0 -25 -1 -25 -80 l0 -80 42 5
43 5 -42 -11 c-32 -7 -43 -15 -43 -29 0 -10 6 -21 13 -23 9 -4 9 -6 0 -6 -10
-1 -13 -276 -13 -1316 l0 -1315 1840 0 c1012 0 1840 1 1840 3 0 1 14 70 31
152 17 83 37 179 44 215 8 36 21 92 29 125 18 68 21 115 6 115 -5 0 -10 -10
-9 -22 0 -36 -16 -99 -37 -143 l-19 -40 -3 29 c-2 16 1 32 7 35 7 5 8 18 1 41
-6 22 -6 38 0 44 15 15 12 53 -5 60 -17 6 -35 -22 -27 -43 2 -7 -1 -17 -8 -21
-9 -5 -9 -17 -1 -46 6 -22 11 -55 11 -74 0 -32 19 -83 20 -52 0 6 5 12 11 12
6 0 8 -9 3 -22 -4 -13 -8 -32 -9 -43 -4 -33 -5 -35 -14 -35 -5 0 -12 13 -16
30 -8 37 -22 39 -35 4 -12 -30 -34 -22 -24 8 3 12 6 81 7 155 0 116 -3 137
-18 151 -14 13 -16 13 -10 2 6 -12 5 -13 -6 -3 -19 18 0 34 44 36 20 1 39 8
42 15 7 20 22 6 28 -28 4 -16 11 -30 17 -30 6 0 9 4 6 9 -3 4 1 17 9 27 14 18
14 17 16 -11 l1 -30 8 33 c9 38 21 53 27 34 4 -10 9 -8 19 5 19 26 17 53 -4
53 -10 0 -28 7 -40 16 -12 8 -22 11 -22 6 0 -15 -78 -21 -160 -13 -42 5 -58 9
-37 10 20 0 37 6 37 11 0 6 7 10 16 10 8 0 12 -4 9 -10 -3 -5 -1 -10 4 -10 6
0 11 5 11 11 0 7 35 9 104 7 57 -2 102 0 100 3 -8 13 22 16 91 10 39 -3 95 -3
125 1 30 3 105 7 165 8 61 2 144 6 185 10 72 6 70 7 -50 9 -69 2 -208 2 -309
2 -120 0 -189 3 -198 11 -7 6 -13 7 -13 2 0 -5 -35 -8 -78 -7 -42 0 -121 2
-174 2 -97 1 -131 15 -68 28 27 5 30 9 30 43 0 29 -4 39 -20 43 -18 5 -20 14
-20 81 0 42 -3 75 -7 74 -21 -6 -73 22 -72 39 0 16 1 16 9 -2 9 -23 14 -14 24
43 4 23 2 32 -8 32 -14 0 -26 46 -18 68 2 7 13 12 23 12 11 0 17 4 14 10 -6 9
23 19 55 19 8 0 69 2 135 5 66 3 162 6 213 7 78 1 92 4 92 18 0 14 -14 16
-112 14 -166 -3 -470 9 -428 18 42 8 514 22 657 19 57 -1 133 2 170 6 142 15
17 22 -405 22 -238 1 -437 4 -444 8 -7 5 -4 10 11 16 18 6 21 11 13 21 -11 13
-7 255 4 266 3 3 76 7 162 8 217 3 444 12 450 18 3 3 3 7 1 10 -3 2 -133 5
-290 5 -261 1 -376 6 -366 16 2 3 116 7 253 9 528 11 585 28 112 35 -185 3
-339 8 -342 11 -10 10 -14 69 -5 69 5 0 9 16 9 35 0 19 -4 35 -9 35 -5 0 -7 9
-4 20 8 29 84 49 188 50 129 2 125 2 125 -20 0 -37 28 -90 47 -90 11 0 24 -5
29 -10 27 -27 64 20 64 81 0 23 6 32 33 43 l32 14 -33 7 c-61 14 -17 25 111
27 76 2 127 7 127 13 0 10 -63 11 -528 15 -178 1 -183 2 -177 21 4 11 1 27 -6
35 -11 13 -10 18 4 25 9 6 17 16 17 24 0 7 10 16 23 18 l22 4 -22 2 c-13 0
-23 6 -23 12 0 8 17 10 53 7 28 -3 76 -2 105 1 64 9 80 -3 64 -48 -8 -21 -7
-34 1 -44 10 -13 20 -12 75 14 34 16 62 31 62 33 0 3 -30 21 -67 40 -60 32
-76 36 -142 36 -41 0 -72 2 -70 4 6 6 198 14 344 16 61 0 105 4 98 8 -6 4
-102 6 -212 5 -134 -1 -199 2 -195 9 4 7 -8 8 -35 3 -22 -4 -58 -4 -79 0 -37
6 -37 6 -34 50 5 54 -2 52 220 61 160 6 233 23 110 25 -60 1 -61 1 -28 11 l35
11 -40 9 c-22 5 -90 8 -152 6 -82 -2 -109 0 -102 8 5 6 7 18 4 26 -11 29 24
42 119 44 50 0 110 4 133 8 34 6 45 4 62 -13 11 -11 16 -23 10 -26 -14 -9 -1
-25 22 -25 10 0 19 -4 19 -10 0 -5 -12 -10 -27 -10 l-28 -1 35 -19 c19 -11 29
-19 22 -20 -7 0 -10 -4 -7 -10 8 -13 62 -13 70 0 4 6 -5 10 -19 10 -14 0 -26
5 -26 10 0 6 10 10 23 10 17 0 19 2 8 9 -8 5 -21 7 -30 4 -13 -4 -13 -2 1 7
10 6 20 26 24 45 4 25 11 35 25 35 21 0 21 1 10 -57 -5 -26 -5 -43 1 -43 5 0
7 -8 3 -19 -3 -11 0 -21 9 -24 15 -6 29 6 39 36 4 9 13 17 21 17 22 0 27 29
10 62 -13 25 -20 29 -41 23 -23 -5 -25 -4 -14 9 16 19 28 17 -134 18 -102 0
-116 2 -90 12 37 14 288 10 279 -5 -11 -18 15 -36 43 -31 20 4 25 1 21 -9 -3
-8 5 -22 18 -32 20 -15 24 -16 24 -3 0 17 42 42 80 47 18 3 28 -2 35 -19 11
-25 18 -27 45 -12 16 9 21 6 26 -14 3 -14 3 -30 -1 -36 -3 -6 -3 -24 0 -41 5
-24 10 -28 19 -19 8 10 8 14 -1 17 -20 7 -15 24 5 21 11 -2 18 5 20 21 2 15 0
21 -7 17 -19 -12 -12 16 12 48 30 41 47 81 47 112 0 32 -30 84 -48 84 -8 0
-19 13 -25 30 -6 16 -18 31 -27 34 -9 2 -7 4 6 5 19 1 21 7 22 57 0 61 -18 81
-44 48 -14 -18 -14 -18 -8 0 6 16 4 17 -14 7 -26 -14 -28 -29 -7 -37 8 -4 15
-12 15 -20 0 -8 5 -14 11 -14 5 0 7 -4 4 -10 -10 -16 -60 -12 -117 10 -28 11
-52 19 -52 17 -1 -1 -7 -12 -13 -24 -17 -30 -16 -48 2 -63 8 -7 14 -27 14 -44
-1 -17 -3 -23 -6 -14 -8 33 -73 40 -105 11 -13 -12 -31 -13 -85 -8 -48 5 -65
4 -58 -3 6 -6 31 -12 58 -13 35 -2 47 -7 47 -18 1 -13 3 -12 15 3 13 17 15 17
21 3 3 -9 0 -30 -7 -46 -15 -34 -32 -38 -139 -35 -105 4 -299 4 -335 1 -28 -2
-30 1 -33 34 -2 24 3 42 13 53 21 21 14 31 -27 34 -74 6 -54 35 26 37 59 2 86
11 86 31 0 8 5 14 10 14 6 0 10 4 10 8 0 5 -33 7 -74 4 -52 -3 -76 -1 -81 8
-13 21 17 30 100 28 83 -1 110 5 118 25 3 9 -28 13 -112 14 -79 2 -119 7 -126
16 -5 7 -22 20 -37 30 -20 12 -28 26 -28 47 0 16 4 31 9 34 5 3 7 25 4 48 -4
25 -2 39 4 35 5 -4 8 6 5 24 -3 20 0 29 9 29 11 0 11 2 -1 10 -8 5 -64 10
-125 10 -88 1 -154 10 -325 44 -186 37 -210 44 -177 51 45 9 51 35 7 35 -33 0
-43 25 -12 33 16 4 16 5 0 6 -10 0 -18 9 -18 19 0 10 -9 35 -20 57 -11 21 -23
54 -26 72 -7 39 -19 41 -45 11 l-18 -23 -1 22 c0 12 4 33 10 48 5 14 14 49 20
78 35 189 32 185 100 142 22 -14 42 -25 45 -25 3 0 67 -30 143 -68 75 -37 157
-73 182 -80 25 -7 66 -20 91 -27 26 -8 54 -15 63 -15 9 0 16 -4 16 -9 0 -5 10
-11 23 -15 12 -3 31 -14 42 -24 19 -17 145 -55 154 -46 2 2 -3 12 -12 22 -10
10 -17 33 -17 50 0 33 -18 57 -50 67 -15 5 -19 12 -15 26 5 15 1 19 -19 19
-27 0 -36 15 -14 22 9 3 9 6 0 12 -7 4 -12 2 -12 -3 0 -6 -6 -11 -14 -11 -13
0 -30 35 -26 55 1 6 8 63 16 128 8 66 17 123 20 128 3 5 18 2 34 -8 16 -9 31
-15 34 -12 3 2 6 76 7 164 2 156 1 160 -20 171 -21 11 -21 12 -3 16 26 7 28
25 31 272 1 150 -1 212 -10 222 -9 11 -9 24 0 53 14 47 15 247 1 256 -13 8
-13 52 1 57 14 5 18 192 24 1201 3 466 7 941 10 1055 8 357 18 1270 15 1450
-1 57 1 106 4 109 2 3 5 122 6 264 l1 259 -1746 0 -1745 0 0 -2934z m2755
2204 c-5 -8 -11 -8 -17 -2 -6 6 -7 16 -3 22 5 8 11 8 17 2 6 -6 7 -16 3 -22z
m-1095 10 c0 -5 -4 -10 -10 -10 -5 0 -10 5 -10 10 0 6 5 10 10 10 6 0 10 -4
10 -10z m-5 -1089 c3 -5 1 -12 -5 -16 -5 -3 -10 1 -10 9 0 18 6 21 15 7z
m1099 -12 c-3 -5 -10 -7 -15 -3 -5 3 -7 10 -3 15 3 5 10 7 15 3 5 -3 7 -10 3
-15z m-1094 -1089 c0 -5 -4 -10 -10 -10 -5 0 -10 5 -10 10 0 6 5 10 10 10 6 0
10 -4 10 -10z m1100 0 c0 -5 -4 -10 -10 -10 -5 0 -10 5 -10 10 0 6 5 10 10 10
6 0 10 -4 10 -10z m472 -862 c-7 -7 -12 -8 -12 -2 0 14 12 26 19 19 2 -3 -1
-11 -7 -17z m-92 -14 c0 -8 -7 -14 -15 -14 -15 0 -21 21 -9 33 10 9 24 -2 24
-19z m-370 -307 c0 -21 -37 -50 -55 -44 -23 9 -18 25 13 41 34 19 42 19 42 3z
m583 -283 c3 -4 2 -16 -4 -26 -13 -24 -35 -9 -26 16 7 17 19 21 30 10z m-99
-35 c-3 -5 -10 -7 -15 -3 -5 3 -7 10 -3 15 3 5 10 7 15 3 5 -3 7 -10 3 -15z
m14 -52 c24 -28 24 -65 1 -96 -13 -17 -26 -31 -30 -31 -4 0 -16 16 -28 36 -19
32 -21 67 -4 97 7 12 50 8 61 -6z m-838 -145 c0 -13 -12 -22 -22 -16 -10 6 -1
24 13 24 5 0 9 -4 9 -8z m714 -196 c-21 -15 -30 -14 -19 3 3 6 14 11 23 11 13
0 13 -2 -4 -14z m266 -70 c0 -3 -4 -8 -10 -11 -5 -3 -10 -1 -10 4 0 6 5 11 10
11 6 0 10 -2 10 -4z m-422 -207 c-4 -28 -31 -32 -36 -6 -5 23 18 51 30 39 6
-6 8 -20 6 -33z m102 11 c0 -5 -4 -10 -9 -10 -6 0 -13 5 -16 10 -3 6 1 10 9
10 9 0 16 -4 16 -10z m-1010 -405 c0 -8 -14 -55 -30 -105 -17 -50 -46 -159
-66 -241 -34 -142 -38 -152 -68 -170 -17 -10 -42 -19 -55 -19 -13 0 -29 -6
-35 -14 -12 -16 -168 -95 -227 -116 -33 -12 -45 -9 -175 35 -188 65 -192 67
-190 107 2 35 27 53 271 201 129 78 240 146 405 248 80 49 151 89 158 89 6 0
12 -7 12 -15z m850 -245 c0 -5 -4 -10 -10 -10 -5 0 -10 5 -10 10 0 6 5 10 10
10 6 0 10 -4 10 -10z m-2240 -73 c0 -8 11 -20 25 -27 22 -12 38 -38 18 -28
-52 25 -63 34 -63 50 0 10 5 18 10 18 6 0 10 -6 10 -13z m35 -457 c-3 -5 -15
-10 -26 -10 -10 0 -19 5 -19 10 0 6 12 10 26 10 14 0 23 -4 19 -10z m412 4
c-3 -3 -12 -4 -19 -1 -8 3 -5 6 6 6 11 1 17 -2 13 -5z m-612 -34 c4 -6 -6 -10
-22 -10 -22 0 -25 2 -13 10 19 12 27 12 35 0z m-205 -40 c0 -5 -16 -10 -36
-10 -21 0 -33 4 -29 10 3 6 19 10 36 10 16 0 29 -4 29 -10z m1988 -92 c-5 -16
-48 -24 -48 -10 0 11 17 20 38 21 8 1 12 -5 10 -11z m-1563 -8 c-3 -5 -10 -10
-16 -10 -5 0 -9 5 -9 10 0 6 7 10 16 10 8 0 12 -4 9 -10z m1015 0 c0 -5 -5
-10 -11 -10 -5 0 -7 5 -4 10 3 6 8 10 11 10 2 0 4 -4 4 -10z m-1053 -6 c-3 -3
-12 -4 -19 -1 -8 3 -5 6 6 6 11 1 17 -2 13 -5z m-89 -22 c2 -8 -8 -12 -29 -12
-31 0 -32 1 -13 15 21 16 36 15 42 -3z m581 2 c1 -1 -13 -6 -33 -10 -40 -7
-59 2 -36 16 13 8 57 4 69 -6z m509 4 c-5 -16 -48 -24 -48 -10 0 11 17 20 38
21 8 1 12 -5 10 -11z m-1188 -27 c0 -10 -89 -25 -98 -17 -3 3 4 6 16 6 11 0
23 3 26 8 6 11 56 14 56 3z m560 -1 c0 -6 -14 -10 -31 -10 -16 0 -28 3 -25 8
7 11 56 13 56 2z m550 0 c0 -5 -6 -10 -14 -10 -8 0 -21 -3 -30 -6 -9 -3 -16
-1 -16 4 0 10 19 18 48 21 6 0 12 -3 12 -9z m-623 -16 c-3 -3 -12 -4 -19 -1
-8 3 -5 6 6 6 11 1 17 -2 13 -5z m-657 -14 c12 -7 10 -11 -10 -18 -31 -12 -45
-5 -29 14 13 16 19 17 39 4z m594 -11 c-3 -5 -19 -9 -37 -9 -28 0 -29 1 -12
14 19 14 59 10 49 -5z m590 12 c6 -8 -25 -21 -53 -21 -11 0 -11 3 -1 15 14 16
46 20 54 6z m-89 -22 c0 -8 -11 -14 -28 -15 -25 -1 -25 -1 -2 3 26 4 33 17 15
26 -6 3 -5 4 2 3 7 -2 13 -9 13 -17z m-600 -9 c-3 -5 -16 -10 -28 -9 -20 1
-20 2 3 9 14 4 26 8 28 9 2 1 0 -3 -3 -9z m-128 -6 c-3 -3 -12 -4 -19 -1 -8 3
-5 6 6 6 11 1 17 -2 13 -5z m583 -33 c0 -14 -18 -23 -31 -15 -8 4 -7 9 2 15
18 11 29 11 29 0z m-635 -11 c-27 -12 -35 -12 -35 0 0 6 12 10 28 9 24 0 25
-1 7 -9z m548 -7 c4 -3 -10 -12 -30 -20 -46 -15 -56 -16 -48 -3 3 6 15 10 26
10 10 0 19 5 19 10 0 11 23 14 33 3z m587 -8 c0 -8 -6 -15 -12 -16 -44 -3 -60
-8 -76 -23 -11 -9 -26 -14 -36 -10 -10 4 -25 -1 -36 -11 -16 -15 -24 -16 -42
-7 -20 9 -21 11 -4 11 21 1 127 38 166 58 32 17 40 16 40 -2z m640 0 c0 -9
-12 -18 -29 -21 -17 -4 -32 -13 -35 -21 -4 -9 -13 -12 -25 -8 -11 3 -21 0 -24
-8 -9 -23 -76 -50 -105 -42 l-26 6 34 16 c19 8 47 21 62 29 14 8 33 14 42 14
9 0 16 5 16 10 0 6 8 10 18 10 9 0 26 7 36 15 25 19 36 19 36 0z m640 0 c0 -8
-4 -15 -8 -15 -9 0 -40 -23 -83 -60 -16 -14 -36 -31 -44 -37 -8 -7 -18 -13
-23 -13 -4 0 -17 -8 -28 -18 -31 -28 -81 -62 -93 -62 -5 0 -22 -11 -37 -24
-65 -58 -98 -80 -137 -90 -15 -3 -25 -11 -22 -16 6 -10 -1 -15 -38 -24 -19 -4
-26 -3 -22 4 3 5 2 10 -4 10 -16 0 -22 -18 -9 -23 18 -6 4 -19 -66 -61 -60
-36 -82 -44 -71 -26 8 13 -1 13 -27 -1 -11 -6 -22 -8 -25 -6 -8 9 60 41 80 38
12 -1 17 4 17 19 0 19 4 21 25 16 15 -4 25 -2 25 4 0 6 -4 8 -10 5 -5 -3 -10
-2 -10 3 0 13 69 54 80 47 4 -3 16 -2 26 2 16 6 16 7 -2 13 -16 6 -11 12 31
38 28 17 55 35 60 39 6 5 22 16 36 25 14 9 32 23 40 30 8 7 28 20 44 28 17 8
32 17 35 20 6 6 32 21 122 71 37 21 80 47 94 58 32 25 44 26 44 6z m-2580 -15
c0 -5 -5 -10 -11 -10 -5 0 -7 5 -4 10 3 6 8 10 11 10 2 0 4 -4 4 -10z m-363
-6 c-3 -3 -12 -4 -19 -1 -8 3 -5 6 6 6 11 1 17 -2 13 -5z m908 -24 c-3 -5 -13
-10 -21 -10 -8 0 -14 5 -14 10 0 6 9 10 21 10 11 0 17 -4 14 -10z m2498 3
c-13 -2 -35 -2 -50 0 -16 2 -5 4 22 4 28 0 40 -2 28 -4z m-3188 -13 c-3 -5
-13 -10 -21 -10 -8 0 -14 5 -14 10 0 6 9 10 21 10 11 0 17 -4 14 -10z m590
-24 c-11 -7 -33 -16 -50 -19 -16 -3 -41 -8 -55 -13 -48 -14 -9 10 43 27 67 22
88 23 62 5z m646 4 c5 0 9 -4 9 -9 0 -10 -80 -32 -92 -25 -15 9 -8 24 11 24
11 0 23 5 26 11 4 6 14 8 22 5 8 -3 19 -6 24 -6z m610 -40 c5 0 9 -4 9 -10 0
-5 -10 -10 -23 -10 -13 0 -33 -9 -45 -20 -12 -11 -26 -20 -32 -20 -6 0 -24 -7
-40 -15 -24 -12 -34 -13 -49 -3 -18 11 -17 13 16 31 22 11 45 16 59 13 14 -4
24 -2 24 4 0 5 -6 10 -12 10 -9 0 -8 4 2 10 8 5 22 9 30 9 10 0 8 -3 -5 -10
-18 -8 -17 -8 5 -6 15 1 24 8 22 16 -2 9 3 11 13 7 9 -3 21 -6 26 -6z m-716
-9 c6 -11 -33 -26 -43 -16 -4 3 0 10 8 15 19 12 27 12 35 1z m-725 -16 c-14
-8 -34 -14 -44 -15 -20 0 -20 0 0 15 10 8 30 14 44 14 l25 0 -25 -14z m627 9
c-3 -3 -12 -4 -19 -1 -8 3 -5 6 6 6 11 1 17 -2 13 -5z m-14 -41 c-26 -13 -59
-23 -73 -22 -25 0 -25 0 -2 9 12 5 22 12 22 15 0 6 -10 4 -60 -13 -8 -2 -6 2
5 11 26 19 49 24 108 23 l49 -1 -49 -22z m-709 7 c-5 -5 -25 -12 -44 -15 l-35
-5 30 14 c35 18 64 21 49 6z m-87 -26 c-3 -3 -12 -4 -19 -1 -8 3 -5 6 6 6 11
1 17 -2 13 -5z m612 -52 c-5 -2 -17 -1 -25 2 -13 5 -14 9 -4 21 11 13 14 13
26 -2 7 -10 9 -19 3 -21z m791 13 c-7 -8 -23 -15 -35 -15 -13 0 -25 -4 -27 -9
-1 -5 -28 -22 -58 -38 -31 -16 -54 -35 -52 -42 2 -7 -3 -21 -11 -30 -8 -9 -17
-24 -20 -34 -4 -10 -13 -17 -20 -15 -15 5 -23 48 -8 48 5 0 17 7 26 16 15 16
14 19 -14 45 -17 15 -31 30 -31 33 0 2 24 2 53 -1 51 -5 116 15 100 31 -3 3 6
5 22 4 16 -2 30 3 33 10 2 6 15 12 29 12 21 0 24 -2 13 -15z m-1583 -11 c-3
-3 -12 -4 -19 -1 -8 3 -5 6 6 6 11 1 17 -2 13 -5z m733 -9 c0 -9 -147 -64
-190 -71 -23 -4 -22 -3 5 10 110 55 185 80 185 61z m-955 -55 c-22 -10 -51
-19 -65 -19 -16 0 -5 7 30 19 70 24 86 24 35 0z m3235 -73 c-6 -17 -44 -68
-85 -112 -41 -43 -75 -82 -75 -86 0 -3 -26 -33 -58 -65 -32 -32 -74 -81 -94
-109 -53 -73 -93 -108 -128 -110 -16 -2 -30 0 -30 4 0 4 44 56 98 117 53 60
117 134 142 164 25 29 59 68 76 86 17 17 41 47 54 65 13 19 42 50 64 71 45 39
56 32 36 -25z m85 33 c-3 -5 -10 -10 -16 -10 -5 0 -9 5 -9 10 0 6 7 10 16 10
8 0 12 -4 9 -10z m58 3 c-7 -2 -19 -2 -25 0 -7 3 -2 5 12 5 14 0 19 -2 13 -5z
m735 -11 c2 -7 -3 -12 -12 -12 -9 0 -16 7 -16 16 0 17 22 14 28 -4z m-3433 -2
c4 -6 -6 -10 -22 -10 -22 0 -25 2 -13 10 19 12 27 12 35 0z m-85 -30 c0 -5 -7
-10 -16 -10 -8 0 -12 5 -9 10 3 6 10 10 16 10 5 0 9 -4 9 -10z m-46 -20 c-5
-5 -25 -12 -44 -15 -35 -5 -35 -5 5 9 51 18 51 18 39 6z m876 1 c0 -12 -102
-61 -126 -61 -16 1 -15 3 6 15 14 8 33 14 43 15 9 0 17 3 17 8 0 4 10 12 23
18 29 15 37 16 37 5z m-1001 -45 c-2 -2 -17 -6 -34 -10 -22 -5 -26 -4 -15 4
14 9 59 15 49 6z m2896 -26 c3 -5 -1 -10 -9 -10 -9 0 -16 5 -16 10 0 6 4 10 9
10 6 0 13 -4 16 -10z m-1180 -10 c-3 -5 -12 -10 -18 -10 -7 0 -6 4 3 10 19 12
23 12 15 0z m55 -5 c-7 -8 -17 -15 -22 -15 -6 0 -30 -18 -55 -40 -25 -22 -52
-40 -59 -40 -8 0 -14 -4 -14 -9 0 -12 -68 -43 -83 -38 -7 2 0 10 16 17 15 7
27 17 27 22 0 4 6 8 13 8 6 0 21 7 32 16 17 13 18 16 5 25 -13 9 -13 10 2 6 9
-3 24 1 35 9 17 14 16 15 -7 8 -24 -6 -24 -6 -5 9 12 9 22 11 26 6 7 -11 53 4
64 20 3 6 13 11 22 11 13 0 13 -3 3 -15z m1257 9 c-3 -3 -12 -4 -19 -1 -8 3
-5 6 6 6 11 1 17 -2 13 -5z m-2207 -13 c0 -9 -41 -23 -48 -16 -2 2 -1 8 3 14
8 13 45 15 45 2z m-980 -11 c-8 -5 -22 -10 -30 -10 -13 0 -13 1 0 10 8 5 22
10 30 10 13 0 13 -1 0 -10z m905 -20 c-8 -13 -89 -50 -109 -50 -9 0 -16 -4
-16 -8 0 -5 -24 -19 -52 -31 -29 -12 -61 -27 -70 -32 -10 -5 -18 -6 -18 -1 0
9 238 130 258 131 7 1 10 -4 7 -9z m-1029 -25 c-15 -8 -33 -15 -40 -15 -16 1
36 29 54 30 8 0 2 -7 -14 -15z m1893 -8 c-41 -29 -92 -57 -95 -54 -3 3 16 19
42 36 26 17 50 29 52 26 3 -3 3 -6 1 -8z m-1959 -17 c0 -5 -6 -7 -14 -4 -8 3
-17 1 -21 -5 -8 -13 -25 -14 -25 -2 0 9 20 17 48 20 6 0 12 -3 12 -9z m-183
-26 c-3 -3 -12 -4 -19 -1 -8 3 -5 6 6 6 11 1 17 -2 13 -5z m110 0 c-3 -3 -12
-4 -19 -1 -8 3 -5 6 6 6 11 1 17 -2 13 -5z m-90 -30 c-3 -3 -12 -4 -19 -1 -8
3 -5 6 6 6 11 1 17 -2 13 -5z m1448 -71 c0 -28 -5 -48 -12 -50 -14 -5 -18 52
-7 81 11 29 19 16 19 -31z m600 11 c28 -26 35 -38 26 -47 -8 -8 -14 -8 -23 1
-7 7 -22 12 -35 12 -13 0 -26 7 -29 15 -7 18 -34 20 -34 3 0 -7 -12 -21 -28
-30 -15 -9 -54 -35 -87 -58 -75 -52 -135 -83 -135 -71 0 10 271 197 306 211 1
0 18 -16 39 -36z m-1120 6 c-3 -5 -13 -10 -21 -10 -8 0 -12 5 -9 10 3 6 13 10
21 10 8 0 12 -4 9 -10z m1973 -14 c10 -9 10 -17 0 -39 -7 -15 -16 -27 -20 -27
-5 0 -8 -5 -8 -11 0 -15 -22 -33 -42 -37 -32 -5 -20 35 19 66 l38 30 -28 13
c-15 7 -27 16 -27 22 0 12 51 0 68 -17z m-2048 -13 c0 -14 -320 -160 -320
-148 0 3 62 34 138 70 75 36 144 69 152 74 19 12 30 13 30 4z m1010 -13 c-35
-28 -111 -73 -115 -68 -5 5 117 87 130 87 6 0 -1 -8 -15 -19z m-1170 -20 c0
-5 -5 -10 -11 -10 -5 0 -7 5 -4 10 3 6 8 10 11 10 2 0 4 -4 4 -10z m1015 -84
c-16 -14 -39 -27 -49 -30 -20 -5 -17 -1 28 32 39 30 58 28 21 -2z m1955 -56
c-17 -11 -83 -14 -77 -2 3 4 25 8 49 10 31 1 39 -1 28 -8z m-1990 -9 c0 -13
-28 -33 -41 -29 -8 3 -6 9 5 21 19 18 36 22 36 8z m1145 -21 c-16 -18 -16 -20
-2 -20 22 0 21 -11 -1 -36 -9 -10 -40 -48 -69 -84 -63 -80 -104 -119 -110
-104 -2 7 -14 9 -26 6 l-21 -5 23 29 c38 49 142 156 147 151 2 -2 -5 -12 -16
-22 -11 -10 -20 -25 -20 -33 0 -19 46 23 67 63 12 21 13 30 4 33 -8 3 -5 12
10 28 27 29 40 23 14 -6z m672 24 c-3 -3 -12 -4 -19 -1 -8 3 -5 6 6 6 11 1 17
-2 13 -5z m-1897 -8 c0 -2 -7 -7 -16 -10 -8 -3 -12 -2 -9 4 6 10 25 14 25 6z
m-1270 -26 c0 -5 -4 -10 -10 -10 -5 0 -10 5 -10 10 0 6 5 10 10 10 6 0 10 -4
10 -10z m1230 0 c0 -5 -6 -10 -14 -10 -8 0 -16 -4 -18 -9 -1 -4 -36 -29 -76
-55 -41 -26 -71 -42 -67 -36 4 6 25 23 48 37 23 14 44 29 47 33 5 7 72 50 78
50 1 0 2 -4 2 -10z m50 -10 c0 -21 -333 -244 -354 -237 -6 2 57 48 139 102 83
54 163 109 178 122 32 26 37 28 37 13z m1340 -25 c0 -23 -5 -35 -14 -35 -10 0
-11 7 -2 35 6 19 12 35 13 35 2 0 3 -16 3 -35z m-1266 19 c29 -11 15 -84 -16
-84 -4 0 -8 20 -8 45 0 48 0 48 24 39z m-1444 -14 c-8 -5 -19 -10 -25 -10 -5
0 -3 5 5 10 8 5 20 10 25 10 6 0 3 -5 -5 -10z m166 -66 c-3 -64 -24 -112 -54
-122 -20 -6 -26 47 -8 67 9 10 16 30 16 44 0 15 5 27 10 27 6 0 15 11 20 25
15 40 19 30 16 -41z m-136 31 c-7 -8 -17 -15 -23 -15 -6 0 -2 7 9 15 25 19 30
19 14 0z m1822 -33 c-7 -37 -50 -81 -62 -62 -4 7 -4 24 1 38 7 17 6 29 -3 40
-11 13 -10 14 8 8 14 -4 26 -1 34 9 17 21 29 3 22 -33z m-1863 15 c-2 -1 -13
-9 -24 -17 -19 -14 -19 -14 -6 3 7 9 18 17 24 17 6 0 8 -1 6 -3z m65 -43 c15
-39 -4 -42 -24 -3 -8 15 -7 19 4 19 7 0 17 -7 20 -16z m526 7 c0 -9 -91 -51
-111 -51 -20 0 4 20 48 41 43 20 63 23 63 10z m755 -40 c-3 -12 -13 -21 -21
-21 -18 0 -18 9 3 32 20 22 27 17 18 -11z m-235 5 c0 -2 -9 -6 -20 -9 -11 -3
-18 -1 -14 4 5 9 34 13 34 5z m470 -10 c0 -3 -4 -8 -10 -11 -5 -3 -10 -1 -10
4 0 6 5 11 10 11 6 0 10 -2 10 -4z m486 -62 c-3 -8 -13 -14 -22 -14 -9 0 -13
5 -10 13 3 6 9 20 12 31 6 17 8 17 16 2 5 -10 7 -24 4 -32z m-1036 32 c0 -5
-75 -56 -83 -56 -20 0 28 49 51 53 15 2 28 5 30 6 1 0 2 -1 2 -3z m-350 -24
c0 -15 -24 -32 -47 -32 -29 0 -29 12 0 26 27 14 47 17 47 6z m910 0 c0 -13
-12 -22 -22 -16 -10 6 -1 24 13 24 5 0 9 -4 9 -8z m100 -12 c0 -5 -4 -10 -10
-10 -5 0 -10 5 -10 10 0 6 5 10 10 10 6 0 10 -4 10 -10z m654 -52 c-10 -13
-26 -30 -34 -39 -8 -9 -40 -45 -70 -80 -30 -35 -79 -89 -107 -120 -29 -31 -53
-59 -53 -62 0 -11 -62 -67 -73 -67 -6 0 5 16 24 37 54 57 61 65 114 128 28 32
61 71 75 86 14 15 45 52 70 83 25 30 51 55 59 56 11 0 9 -6 -5 -22z m66 17 c0
-3 -13 -20 -30 -38 -34 -36 -87 -99 -210 -245 -48 -57 -93 -101 -103 -101 -13
-1 -2 18 41 67 125 141 262 305 262 313 0 5 9 9 20 9 11 0 20 -2 20 -5z
m-1425 -25 c-10 -11 -28 -20 -39 -20 -20 0 -20 1 4 20 34 27 59 27 35 0z
m-337 -5 c1 -5 -7 -9 -18 -8 -30 1 -32 2 -26 11 7 11 40 9 44 -3z m221 -68
c-2 -1 -19 -13 -38 -26 -112 -79 -285 -190 -289 -186 -7 6 -14 1 118 91 127
88 203 134 209 128 2 -2 2 -5 0 -7z m-171 -49 c-22 -21 -108 -80 -108 -74 0 7
103 86 113 86 5 0 2 -6 -5 -12z m-188 -188 c-14 -11 -29 -20 -35 -20 -5 0 4 9
20 20 38 25 48 25 15 0z m-141 -34 c-2 -2 -15 -9 -29 -15 -24 -11 -24 -11 -6
3 16 13 49 24 35 12z m61 -20 c0 -2 -7 -7 -16 -10 -8 -3 -12 -2 -9 4 6 10 25
14 25 6z m1524 -70 c-38 -45 -49 -55 -42 -37 5 16 71 91 76 87 2 -3 -13 -25
-34 -50z m90 31 c-5 -15 -44 -40 -44 -29 0 4 7 18 16 30 16 23 37 22 28 -1z
m-56 -57 c-3 -10 -81 -104 -208 -251 -41 -47 -89 -104 -107 -125 -65 -79 -133
-149 -133 -138 0 10 56 81 90 114 8 8 47 53 85 100 73 90 180 215 227 265 15
17 28 33 28 38 0 4 5 7 11 7 6 0 9 -4 7 -10z m-121 -77 c-18 -20 -50 -55 -71
-77 -33 -34 -36 -36 -21 -11 22 35 105 125 116 125 4 0 -7 -17 -24 -37z
m-1767 -53 c-20 -13 -33 -13 -25 0 3 6 14 10 23 10 15 0 15 -2 2 -10z m1581
-153 l-23 -22 17 28 c10 15 20 25 23 22 3 -3 -5 -16 -17 -28z m-42 -54 c-40
-46 -71 -74 -67 -62 5 16 71 87 82 88 5 1 -1 -11 -15 -26z m-143 -161 c-18
-16 -18 -16 -6 6 6 13 14 21 18 18 3 -4 -2 -14 -12 -24z m8 -76 c-6 -16 -34
-30 -34 -18 0 5 5 13 12 20 16 16 29 15 22 -2z m-64 -70 c0 -2 -7 -9 -15 -16
-13 -11 -14 -10 -9 4 5 14 24 23 24 12z m1850 -73 c0 -10 -6 -13 -16 -9 -9 3
-21 6 -27 6 -6 0 -2 6 8 14 22 16 35 12 35 -11z m-1946 -38 c-4 -8 -11 -15
-16 -15 -6 0 -5 6 2 15 7 8 14 15 16 15 2 0 1 -7 -2 -15z m2046 -318 c0 -18
-2 -19 -10 -7 -6 10 -10 11 -10 3 0 -7 -4 -13 -10 -13 -12 0 -9 19 5 36 14 16
25 7 25 -19z"/>
<path d="M1648 3583 c17 -2 47 -2 65 0 17 2 3 4 -33 4 -36 0 -50 -2 -32 -4z"/>
<path d="M1755 3580 c-7 -11 9 -11 45 0 24 8 24 8 -7 9 -17 1 -35 -3 -38 -9z"/>
<path d="M2752 1898 c-18 -17 -30 -34 -27 -36 2 -3 18 10 35 28 40 43 32 50
-8 8z"/>
<path d="M4338 9548 c-2 -24 0 -68 5 -98 4 -30 7 -64 6 -75 -3 -67 -6 -180 -7
-320 -2 -203 -2 -201 -7 -260 -2 -27 -7 -263 -11 -523 -7 -458 -7 -473 12
-487 17 -13 17 -14 2 -15 -14 0 -18 -9 -19 -37 0 -21 -2 -72 -3 -113 -2 -41 0
-85 5 -97 4 -12 5 -25 0 -27 -4 -3 -8 -151 -9 -328 -2 -313 -6 -639 -18 -1280
-4 -267 -3 -308 10 -308 8 0 16 5 18 11 4 13 38 0 38 -15 0 -16 -49 -63 -58
-56 -10 7 -18 -331 -23 -865 l-4 -449 30 -1 c25 0 30 -4 30 -25 0 -16 -6 -26
-17 -28 -13 -2 -18 3 -18 17 0 12 -6 21 -13 21 -11 0 -15 -36 -20 -157 -10
-226 -9 -331 3 -335 6 -2 54 1 108 7 l97 10 3 42 c3 37 0 42 -20 45 -30 4 -30
32 0 36 l22 3 0 209 c0 232 7 211 -71 224 -45 8 -58 23 -65 73 -3 21 -13 53
-21 71 -10 23 -12 48 -7 88 7 61 15 71 38 49 14 -15 99 -55 116 -55 5 0 9 119
9 264 0 223 -2 265 -14 270 -18 7 -20 32 -2 39 9 3 12 49 12 191 -1 102 -4
189 -8 193 -11 10 -8 25 3 18 6 -4 8 14 4 47 -7 71 -7 75 -1 140 3 42 1 61 -9
69 -16 13 -9 89 9 101 7 4 6 12 -3 22 -9 12 -11 32 -6 71 5 44 2 60 -14 87
-27 45 -25 66 6 74 23 6 24 8 9 17 -14 8 -15 11 -4 18 9 6 10 12 4 17 -12 9
-18 84 -7 91 5 4 4 58 0 121 -6 77 -6 122 2 138 7 16 7 29 -1 43 -6 11 -8 27
-5 35 3 9 -1 28 -9 45 -14 26 -14 29 0 29 28 0 16 18 -17 26 -18 4 -36 7 -40
6 -5 -1 -8 2 -8 7 0 5 18 11 39 15 39 6 39 7 43 54 1 27 1 163 -2 303 -3 140
-2 256 3 257 14 7 7 31 -10 35 -13 3 -11 5 6 6 23 1 23 2 7 20 -10 11 -15 24
-12 30 6 9 10 192 7 318 -1 46 -3 52 -20 50 -11 -1 -19 3 -18 8 1 6 8 10 16
10 20 0 34 60 27 115 -10 69 -9 88 3 189 10 75 10 99 0 118 -9 17 -10 28 -1
46 7 13 9 45 6 77 -7 71 -7 74 0 210 7 124 7 131 6 232 -1 63 -3 69 -28 82
-15 9 -21 15 -14 16 6 0 12 5 12 11 0 6 9 22 20 36 19 25 20 27 3 46 -13 15
-15 21 -5 24 15 6 17 179 2 188 -6 4 -7 13 -1 23 5 10 8 87 6 172 -4 244 -1
220 -34 220 -25 0 -30 -5 -34 -27 l-4 -28 -2 28 c-1 23 -5 27 -30 27 -28 0
-30 -3 -33 -42z m114 -58 c4 -33 -31 -35 -43 -2 -6 16 -5 22 6 22 8 0 15 5 15
12 0 22 19 -6 22 -32z m-52 -145 c0 -8 -4 -15 -10 -15 -5 0 -10 7 -10 15 0 8
5 15 10 15 6 0 10 -7 10 -15z m-3 -1571 c-3 -3 -12 -4 -19 -1 -8 3 -5 6 6 6
11 1 17 -2 13 -5z m-20 -230 c-3 -3 -12 -4 -19 -1 -8 3 -5 6 6 6 11 1 17 -2
13 -5z m37 -130 c8 -21 8 -24 -3 -24 -5 0 -11 9 -14 20 -6 24 8 27 17 4z m7
-1950 c11 -14 11 -18 -4 -29 -23 -17 -57 -8 -57 14 0 34 38 43 61 15z m-31
-1343 c0 -15 -28 -33 -40 -26 -8 5 -8 11 1 21 13 15 39 19 39 5z m-10 -131 c0
-5 -4 -10 -10 -10 -5 0 -10 5 -10 10 0 6 5 10 10 10 6 0 10 -4 10 -10z"/>
<path d="M5389 9578 c-1 -7 -2 -51 -3 -97 -1 -73 1 -85 17 -89 20 -5 19 -51
-2 -91 -8 -14 -11 -39 -8 -60 3 -20 2 -74 -2 -121 -4 -47 -5 -86 -1 -88 4 -1
3 -28 -2 -60 -8 -52 -7 -58 13 -74 11 -10 36 -18 55 -18 19 0 34 -4 34 -9 0
-6 -17 -10 -37 -9 -37 0 -105 -20 -72 -21 12 -1 16 -9 15 -26 0 -14 -4 -25 -8
-25 -5 0 -8 -21 -8 -46 0 -37 4 -47 20 -51 25 -7 26 -19 1 -26 -21 -5 -25 -41
-8 -64 6 -9 5 -18 -4 -29 -7 -9 -9 -18 -3 -22 33 -24 37 -105 7 -129 -12 -9
-13 -23 -8 -62 6 -45 10 -51 30 -51 34 0 55 -10 55 -26 0 -8 -10 -14 -25 -14
-14 0 -25 -4 -25 -10 0 -5 -9 -10 -20 -10 -24 0 -25 -4 -4 -35 14 -21 14 -28
3 -41 -10 -13 -10 -17 1 -24 12 -7 11 -11 -1 -26 -9 -12 -10 -18 -3 -21 21 -7
49 -32 37 -33 -7 0 -13 -9 -13 -21 0 -14 -5 -19 -14 -16 -22 9 -31 -41 -11
-63 11 -13 19 -45 22 -99 l6 -80 34 1 c18 1 39 -4 45 -10 17 -17 -29 -31 -72
-21 -19 4 -39 4 -44 -1 -11 -11 2 -32 15 -24 19 11 36 -16 36 -56 0 -22 -3
-38 -7 -35 -4 2 -14 -1 -24 -8 -15 -11 -17 -26 -15 -82 1 -11 -2 -29 -5 -40
-5 -15 3 -26 34 -48 44 -31 50 -51 20 -69 -11 -7 -20 -21 -20 -30 0 -10 -5
-18 -11 -18 -8 0 -8 -4 0 -14 6 -7 9 -21 5 -30 -4 -10 0 -18 10 -22 20 -8 21
-24 1 -24 -19 0 -20 -36 0 -43 8 -4 17 -2 20 4 8 13 25 2 25 -17 0 -8 -7 -14
-15 -14 -11 0 -15 -11 -15 -40 0 -22 -4 -40 -10 -40 -6 0 -9 -32 -7 -80 3 -78
2 -80 -20 -80 -32 0 -29 -16 6 -34 19 -10 30 -25 33 -45 3 -17 0 -29 -6 -28
-6 1 -12 -9 -14 -23 -2 -14 -9 -29 -16 -33 -6 -4 3 -5 19 -1 17 4 34 13 38 21
4 7 15 13 23 13 12 0 14 -10 12 -47 -3 -48 -23 -69 -35 -36 -9 24 -29 44 -37
36 -11 -12 -6 -44 8 -49 16 -6 10 -38 -9 -54 -9 -7 -12 -23 -8 -45 5 -30 2
-36 -18 -44 -23 -9 -23 -12 4 -15 6 -1 11 -6 10 -11 -1 -6 -4 -27 -8 -47 -6
-31 -4 -38 9 -38 11 0 16 -9 16 -32 0 -55 -10 -79 -30 -73 -22 7 -36 -13 -21
-28 9 -9 14 -8 21 3 8 12 10 12 16 -3 3 -10 7 -31 8 -47 1 -16 9 -39 19 -50
16 -20 16 -22 -3 -42 -16 -17 -23 -19 -32 -10 -16 16 -28 15 -28 -3 0 -9 7
-18 15 -21 10 -4 15 -20 15 -50 0 -24 5 -44 11 -44 5 0 7 -4 4 -10 -3 -5 -14
-10 -23 -10 -19 0 -47 -51 -33 -59 4 -3 8 -13 9 -21 0 -8 3 -30 7 -47 6 -25 4
-34 -9 -39 -9 -3 -16 -13 -16 -21 0 -11 7 -13 24 -9 30 7 56 -2 56 -19 0 -15
-22 -25 -54 -25 -21 0 -21 -2 -18 -107 2 -60 8 -110 14 -111 5 -2 4 -9 -2 -17
-9 -11 -25 -184 -22 -240 7 -128 7 -193 1 -189 -5 3 -8 -37 -7 -88 1 -118 -11
-971 -17 -1141 -2 -70 0 -127 4 -127 5 0 25 17 45 37 26 27 36 33 36 20 0 -9
-7 -17 -15 -17 -8 0 -15 -4 -15 -8 0 -14 -54 -74 -230 -254 -96 -98 -176 -183
-178 -188 -2 -6 24 -10 61 -10 35 0 85 -3 111 -6 41 -6 48 -11 70 -51 20 -35
23 -49 15 -70 -11 -30 8 -68 41 -78 12 -4 25 -17 30 -29 9 -25 44 -36 111 -36
43 0 52 19 22 42 -34 25 -85 98 -69 98 8 0 22 -10 30 -22 9 -13 31 -34 50 -48
121 -91 147 -113 142 -125 -4 -11 1 -11 27 -1 18 8 62 19 99 26 38 7 69 18 72
26 3 9 -1 14 -13 14 -11 0 -21 -4 -23 -10 -2 -5 -14 -3 -28 5 -14 8 -35 19
-47 24 -24 11 -26 18 -23 62 1 23 -4 27 -32 32 -89 15 -125 24 -143 36 -19 11
-18 12 8 8 21 -3 27 0 27 14 0 11 7 19 17 19 15 0 14 2 -3 14 -17 13 25 15
343 13 199 -1 364 -5 367 -8 3 -3 2 -50 -3 -105 -6 -73 -5 -103 4 -114 7 -8
15 -23 18 -33 7 -19 24 -18 107 10 25 9 77 18 115 20 99 8 125 32 58 54 -20 6
-60 35 -88 62 -27 28 -52 52 -55 52 -3 1 -18 5 -35 9 -56 14 -85 28 -85 42 0
8 61 45 138 83 76 38 197 103 268 144 71 41 161 90 200 110 38 19 76 42 83 51
8 9 17 16 22 16 5 0 26 10 47 23 20 13 72 38 115 56 42 19 77 35 77 37 0 2 -6
23 -14 46 -8 24 -24 88 -35 143 -12 55 -26 116 -31 136 -14 50 -13 59 8 59 9
0 43 13 74 29 32 16 73 35 93 41 34 11 38 10 61 -15 14 -15 23 -29 21 -32 -3
-2 10 -20 29 -38 19 -19 34 -38 34 -43 0 -5 11 -15 25 -22 14 -7 25 -16 25
-20 0 -4 11 -19 25 -34 l24 -26 25 21 c20 17 24 28 19 48 -3 14 -12 30 -20 34
-7 4 -13 14 -13 22 0 8 -10 17 -23 20 -12 3 -29 16 -37 29 -8 12 -26 39 -39
60 -14 23 -29 35 -37 32 -9 -3 -6 6 7 24 12 16 28 31 36 34 22 9 15 49 -17 99
-16 26 -30 50 -30 53 0 3 -9 18 -20 33 -10 15 -48 79 -83 142 -35 63 -74 132
-87 154 -25 45 -67 115 -151 255 -31 52 -71 121 -88 152 -34 63 -56 168 -36
168 6 0 83 -73 171 -163 396 -405 454 -466 454 -473 0 -4 12 -21 27 -36 23
-24 25 -30 13 -38 -13 -8 -12 -10 3 -10 10 0 16 -4 13 -9 -3 -5 2 -15 11 -22
15 -13 16 -11 10 11 -6 23 -5 24 8 6 10 -13 11 -25 4 -43 -12 -31 -1 -73 18
-73 9 0 13 -6 9 -15 -3 -10 1 -15 12 -15 15 0 15 -2 2 -11 -12 -8 -10 -9 10
-5 14 3 29 6 34 6 6 0 2 6 -9 13 -12 10 -14 16 -7 21 7 4 12 2 12 -3 0 -6 11
-11 25 -11 15 0 25 6 25 14 0 9 7 12 19 9 16 -4 96 34 291 140 177 95 258 137
269 137 19 0 13 -15 -21 -49 -72 -73 -78 -88 -78 -180 0 -75 -4 -94 -30 -150
-17 -35 -41 -76 -54 -92 -15 -18 -27 -47 -31 -81 -8 -64 -25 -128 -38 -146 -6
-7 -11 -25 -13 -40 -1 -15 -5 -36 -8 -47 -3 -11 -15 -56 -26 -100 -31 -119
-43 -158 -57 -181 -7 -12 -11 -29 -7 -38 9 -22 -11 -21 -82 8 -55 22 -345 159
-406 192 -34 18 -55 19 -39 1 6 -8 9 -16 6 -19 -2 -2 4 -27 15 -56 20 -51 20
-52 0 -84 -11 -18 -22 -40 -26 -48 -17 -44 -45 -93 -66 -117 -8 -10 -18 -29
-21 -43 -4 -14 -22 -50 -42 -80 -19 -30 -35 -63 -35 -73 0 -10 -9 -30 -20 -45
-11 -15 -21 -38 -24 -52 -2 -14 -9 -24 -15 -23 -5 2 -8 -4 -4 -13 3 -8 -2 -21
-13 -29 -21 -15 -26 -10 62 -45 40 -16 24 -20 -35 -11 -32 5 -57 15 -63 25 -7
12 -24 16 -63 16 -60 0 -83 -17 -36 -26 17 -4 31 -12 30 -18 -3 -26 2 -36 19
-36 10 0 29 -11 42 -25 14 -15 18 -25 11 -25 -8 0 -11 -6 -7 -15 4 -11 -1 -15
-19 -15 -13 0 -31 -10 -39 -21 l-15 -21 -29 21 c-52 37 -57 24 -12 -29 29 -34
35 -49 30 -79 -1 -8 4 -18 12 -23 9 -7 6 -8 -9 -5 -13 3 -23 1 -23 -4 0 -5 5
-9 10 -9 6 0 19 -9 30 -20 13 -13 33 -20 61 -20 22 0 61 -5 86 -11 35 -9 47
-9 53 0 4 7 23 11 46 9 36 -3 34 -4 -35 -21 -137 -32 -368 -67 -422 -63 -210
14 -237 18 -232 37 4 13 17 19 47 22 29 2 21 4 -26 5 -37 1 -70 7 -73 12 -4 6
41 11 127 12 73 1 142 3 153 4 11 1 38 3 60 3 30 1 36 4 25 11 -8 5 -25 10
-38 10 -24 0 -44 31 -24 38 23 7 12 23 -15 21 -38 -3 -73 10 -73 27 0 8 -5 14
-11 14 -5 0 -8 4 -5 9 3 4 -3 16 -14 26 -19 17 -21 17 -40 0 -11 -10 -17 -21
-15 -25 6 -10 -20 -20 -51 -20 -21 0 -24 -5 -24 -35 0 -35 -16 -47 -26 -20
-10 24 -22 17 -26 -12 -3 -25 -7 -28 -43 -30 -73 -4 -145 -15 -145 -23 0 -5
14 -14 30 -22 17 -7 30 -16 30 -20 0 -5 5 -8 12 -8 6 0 32 -13 57 -29 69 -43
115 -57 143 -43 31 15 120 24 136 14 9 -6 6 -12 -12 -20 -25 -11 -25 -13 -20
-99 3 -48 6 -145 8 -216 2 -70 6 -130 9 -134 13 -12 -33 -34 -83 -40 -53 -6
-69 -23 -22 -23 15 0 34 -4 42 -10 12 -7 11 -10 -5 -15 -11 -3 -41 -17 -67
-31 -25 -13 -68 -27 -95 -30 -26 -3 -55 -8 -63 -11 -22 -8 28 -25 51 -18 11 4
19 2 19 -4 0 -6 -4 -11 -10 -11 -5 0 -10 -9 -10 -19 0 -10 -7 -21 -15 -25 -8
-3 -20 -16 -26 -29 -9 -20 -7 -31 14 -63 30 -48 39 -101 19 -109 -7 -3 -30 -5
-50 -6 -20 -1 -48 -4 -62 -8 -24 -7 -24 -7 9 -14 18 -4 53 -7 77 -7 23 0 45
-4 48 -9 8 -12 -28 -21 -84 -21 -33 0 -41 -3 -30 -10 8 -5 26 -10 40 -10 41 0
66 -24 68 -67 2 -21 5 -51 7 -68 3 -16 7 -52 10 -78 2 -27 8 -54 13 -60 28
-38 3 -49 -146 -63 -48 -4 -76 -9 -62 -11 14 -1 60 -5 103 -8 115 -10 96 -41
-28 -46 -16 -1 -1 -6 34 -11 35 -5 75 -15 89 -22 25 -13 25 -16 28 -137 1 -68
3 -137 3 -154 1 -16 1 -56 0 -87 0 -31 2 -61 5 -66 22 -35 -102 -62 -286 -62
l-88 0 0 44 c0 26 -6 48 -15 56 -8 7 -15 19 -15 26 0 8 -6 14 -13 14 -15 0
-97 -61 -97 -72 0 -4 26 -20 58 -35 53 -25 55 -28 32 -34 -14 -4 40 -8 120 -9
128 -2 335 -14 303 -18 -7 -1 -10 -8 -7 -16 7 -18 -36 -24 -226 -34 l-155 -7
176 -5 c110 -3 181 -9 190 -16 8 -7 23 -14 34 -17 17 -4 16 -5 -5 -6 -14 -1
-20 -5 -14 -9 21 -15 35 -191 35 -454 l0 -268 1435 0 1434 0 0 4795 0 4795
-1596 0 c-1064 0 -1593 -3 -1589 -10 3 -6 6 -151 5 -323 -1 -171 -1 -319 -1
-327 5 -383 -2 -2517 -8 -2523 -6 -6 -23 -1 -43 11 -32 20 -34 20 -55 2 -13
-10 -23 -24 -23 -30 0 -7 -8 -10 -19 -7 -24 6 -46 -7 -37 -22 9 -14 89 -51
110 -51 9 0 26 14 38 30 20 27 23 29 30 13 3 -10 7 -100 7 -200 1 -141 4 -182
14 -180 8 1 13 -13 15 -40 3 -40 -10 -58 -21 -30 -3 6 -6 -166 -7 -383 0 -329
-4 -622 -9 -690 0 -8 3 -44 7 -80 l7 -64 18 26 c9 15 17 32 17 38 0 5 5 10 11
10 7 0 9 -10 5 -25 -4 -14 -2 -25 4 -25 5 0 10 18 10 41 0 43 -10 26 235 399
67 102 130 200 140 218 21 35 41 41 49 15 11 -37 9 -157 -2 -161 -7 -2 -12
-11 -12 -21 0 -9 -16 -49 -35 -88 -19 -39 -35 -78 -35 -87 0 -16 -17 -56 -71
-173 -16 -35 -29 -66 -29 -70 0 -4 -11 -30 -24 -58 -47 -99 -98 -244 -90 -256
3 -5 -2 -9 -10 -9 -30 0 -16 -31 22 -47 20 -8 55 -23 77 -33 147 -65 243 -91
281 -76 14 5 15 9 4 19 -10 9 -13 9 -17 0 -3 -7 -14 -13 -25 -13 -15 0 -18 3
-10 13 5 6 12 23 14 37 2 21 8 24 30 22 19 -2 26 1 24 10 -2 7 -7 28 -10 46
-5 30 -4 32 26 32 31 0 31 0 13 20 -18 20 -18 21 1 35 15 11 16 17 6 23 -18
12 -24 52 -7 52 9 0 16 -17 20 -47 3 -27 10 -66 16 -88 64 -258 64 -255 34
-255 -18 0 -30 -10 -44 -38 -22 -43 -61 -82 -87 -86 -9 -1 -19 -11 -20 -21 -4
-24 -24 -36 -52 -32 -12 3 -25 0 -28 -4 -3 -5 -14 -9 -25 -9 -10 0 -19 -7 -19
-15 0 -8 -7 -15 -15 -15 -8 0 -24 -6 -35 -12 -14 -9 -23 -10 -28 -3 -4 6 -20
19 -37 29 -27 18 -56 43 -155 138 -72 69 -190 198 -190 208 0 6 9 5 25 -2 26
-12 24 -13 82 61 20 26 15 36 -37 66 -41 25 -49 34 -45 52 3 12 2 23 -3 26 -4
2 -2 3 4 1 17 -3 50 64 37 77 -13 13 -46 -20 -74 -73 -21 -42 -41 -47 -92 -24
-132 56 -109 66 -287 -125 -173 -186 -540 -554 -540 -542 0 7 34 47 75 90 41
42 75 81 75 85 0 4 -12 15 -27 25 -16 9 -30 19 -33 21 -3 2 5 11 18 20 l22 17
0 1905 c0 1048 0 1909 0 1914 0 6 -5 5 -12 -2 -17 -17 -45 -15 -52 4 -9 22 0
31 34 39 29 6 30 9 30 58 0 29 3 388 6 800 l6 747 -91 0 c-66 0 -91 -3 -92
-12z m1109 -19 c-2 -6 -8 -10 -13 -10 -5 0 -11 4 -13 10 -2 6 4 11 13 11 9 0
15 -5 13 -11z m-1061 -281 c-3 -8 -6 -5 -6 6 -1 11 2 17 5 13 3 -3 4 -12 1
-19z m67 -84 c41 -16 -2 -52 -45 -39 -19 6 -20 8 -3 26 19 21 24 22 48 13z
m44 -166 c4 -19 -35 -31 -42 -13 -5 15 14 37 29 32 5 -2 11 -11 13 -19z m-8
-159 c0 -5 -4 -9 -10 -9 -5 0 -10 7 -10 16 0 8 5 12 10 9 6 -3 10 -10 10 -16z
m1590 0 c0 -5 -4 -9 -10 -9 -5 0 -10 7 -10 16 0 8 5 12 10 9 6 -3 10 -10 10
-16z m-680 1 c0 -5 -4 -10 -10 -10 -5 0 -10 5 -10 10 0 6 5 10 10 10 6 0 10
-4 10 -10z m40 6 c0 -3 -4 -8 -10 -11 -5 -3 -10 -1 -10 4 0 6 5 11 10 11 6 0
10 -2 10 -4z m20 -66 c0 -11 -7 -20 -15 -20 -8 0 -15 9 -15 20 0 11 7 20 15
20 8 0 15 -9 15 -20z m-990 -60 c0 -13 -7 -20 -20 -20 -22 0 -28 25 -7 33 22
10 27 7 27 -13z m1020 -165 c0 -8 -4 -15 -10 -15 -5 0 -10 7 -10 15 0 8 5 15
10 15 6 0 10 -7 10 -15z m1010 -59 c0 -11 -19 -15 -25 -6 -3 5 1 10 9 10 9 0
16 -2 16 -4z m-2098 -128 c-9 -9 -12 -7 -12 12 0 19 3 21 12 12 9 -9 9 -15 0
-24z m1288 -157 c0 -6 -4 -13 -10 -16 -5 -3 -10 1 -10 9 0 9 5 16 10 16 6 0
10 -4 10 -9z m-1289 -324 c-8 -8 -11 -7 -11 4 0 9 3 19 7 23 4 4 9 2 11 -4 3
-7 -1 -17 -7 -23z m1679 -137 c0 -5 -5 -10 -11 -10 -5 0 -7 5 -4 10 3 6 8 10
11 10 2 0 4 -4 4 -10z m-1640 -285 c0 -8 -6 -15 -14 -15 -7 0 -19 7 -26 15
-11 13 -8 15 14 15 16 0 26 -5 26 -15z m10 -75 c0 -5 -2 -10 -4 -10 -3 0 -8 5
-11 10 -3 6 -1 10 4 10 6 0 11 -4 11 -10z m20 -360 c0 -5 -4 -10 -10 -10 -5 0
-10 5 -10 10 0 6 5 10 10 10 6 0 10 -4 10 -10z m1048 -2 c-6 -18 -28 -21 -28
-4 0 9 7 16 16 16 9 0 14 -5 12 -12z m-1098 -22 c0 -15 -14 -35 -21 -30 -15 9
-10 34 6 34 8 0 15 -2 15 -4z m0 -71 c10 -13 9 -15 -9 -15 -12 0 -21 6 -21 15
0 8 4 15 9 15 5 0 14 -7 21 -15z m1109 -268 c12 -15 5 -27 -16 -27 -7 0 -13 9
-13 20 0 23 13 26 29 7z m-1069 -17 c11 -7 4 -10 -25 -9 -31 0 -36 2 -20 9 26
11 28 11 45 0z m-83 -172 c-3 -8 -6 -5 -6 6 -1 11 2 17 5 13 3 -3 4 -12 1 -19z
m1137 6 c11 -29 6 -44 -14 -44 -23 0 -35 22 -26 45 7 20 32 19 40 -1z m137
-115 c5 -11 7 -35 3 -55 -5 -28 -12 -36 -35 -41 -16 -3 -39 -19 -50 -34 -24
-35 -42 -89 -28 -89 5 0 9 -4 9 -10 0 -5 -10 -10 -21 -10 -20 0 -21 4 -15 48
4 26 14 78 24 116 14 58 22 72 47 86 34 19 51 16 66 -11z m145 -104 c2 -5 -21
-21 -51 -34 -30 -13 -67 -34 -82 -47 -29 -24 -53 -31 -53 -15 0 13 95 81 113
81 8 0 20 7 27 15 14 17 41 17 46 0z m-1386 -14 c0 -6 -4 -13 -10 -16 -5 -3
-10 1 -10 9 0 9 5 16 10 16 6 0 10 -4 10 -9z m60 -1 c0 -5 -2 -10 -4 -10 -3 0
-8 5 -11 10 -3 6 -1 10 4 10 6 0 11 -4 11 -10z m-50 -111 c-6 -10 -16 -19 -23
-18 -9 0 -9 2 1 6 6 2 12 14 12 24 0 11 5 17 10 14 7 -4 7 -13 0 -26z m70 7
c0 -8 -7 -16 -15 -20 -13 -4 -14 -2 -5 14 13 23 20 26 20 6z m-103 -88 c-3 -8
-6 -5 -6 6 -1 11 2 17 5 13 3 -3 4 -12 1 -19z m-9 -90 c-3 -7 -12 -14 -21 -16
-12 -2 -15 1 -11 12 7 19 38 22 32 4z m1079 -115 c3 -8 -6 -12 -26 -10 -17 1
-31 7 -31 13 0 15 52 12 57 -3z m213 -14 c0 -7 12 -10 30 -7 39 6 39 -10 0
-25 -25 -9 -28 -15 -23 -37 6 -22 5 -24 -10 -11 -9 7 -14 17 -11 22 3 5 -6 9
-21 9 -33 0 -45 28 -20 46 23 17 55 18 55 3z m-127 -83 c6 -15 -19 -56 -34
-56 -10 0 -13 53 -2 63 11 12 31 8 36 -7z m-125 -128 c9 -9 7 -17 -8 -33 -18
-20 -19 -23 -5 -35 12 -10 16 -9 21 6 15 49 35 61 44 27 4 -15 15 -19 49 -18
52 0 65 -19 26 -37 -19 -9 -28 -9 -33 -1 -5 8 -20 8 -54 1 -44 -11 -49 -10
-68 12 -22 26 -25 42 -10 71 12 22 21 24 38 7z m-990 -396 c2 -16 -3 -25 -19
-31 -46 -16 -68 3 -53 44 10 26 68 16 72 -13z m1539 -634 c-3 -7 -5 -2 -5 12
0 14 2 19 5 13 2 -7 2 -19 0 -25z m-1541 -585 c17 -23 18 -47 1 -40 -7 3 -19
-4 -25 -14 -12 -20 -52 -27 -52 -9 0 5 8 25 17 45 18 38 39 45 59 18z m1681
-103 c-4 -59 -21 -71 -25 -18 -3 30 11 65 25 68 2 0 1 -23 0 -50z m-261 -138
c-5 -4 -33 23 -56 53 -8 11 2 5 23 -14 20 -19 35 -36 33 -39z m44 -22 c8 -5
11 -12 7 -16 -4 -4 -15 0 -24 9 -18 18 -8 23 17 7z m-1430 -470 c0 -5 -2 -10
-4 -10 -3 0 -8 5 -11 10 -3 6 -1 10 4 10 6 0 11 -4 11 -10z m3144 -29 c3 -4
-6 -13 -19 -19 -15 -7 -26 -8 -30 -2 -4 6 -23 10 -43 11 -20 0 -55 4 -77 8
-32 7 -19 9 62 10 56 0 104 -3 107 -8z m-3304 -22 c0 -5 -4 -9 -10 -9 -5 0
-10 7 -10 16 0 8 5 12 10 9 6 -3 10 -10 10 -16z m2895 -18 c7 -1 6 -11 0 -11
-3 0 -11 0 -18 0 -7 0 -22 7 -33 15 -17 13 -16 14 14 5 18 -5 35 -9 37 -9z
m-49 -57 c17 -8 35 -14 40 -13 21 4 35 -2 29 -11 -3 -6 -17 -7 -31 -4 -13 3
-24 2 -24 -4 0 -5 -13 -12 -30 -14 -21 -3 -30 0 -30 10 0 9 -6 12 -16 8 -8 -3
-12 -2 -9 4 3 6 1 10 -4 10 -6 0 -11 9 -11 21 0 18 4 20 28 14 15 -3 41 -13
58 -21z m324 -33 c0 -5 3 -16 6 -24 4 -11 -1 -13 -20 -10 -29 6 -32 13 -14 31
14 14 28 16 28 3z m-1240 -11 c0 -5 -2 -10 -4 -10 -3 0 -8 5 -11 10 -3 6 -1
10 4 10 6 0 11 -4 11 -10z m385 -20 c341 -29 390 -38 399 -77 4 -14 3 -30 -2
-35 -10 -10 -95 -28 -332 -69 -176 -30 -190 -31 -290 -20 -58 6 -127 11 -153
11 -36 0 -50 5 -59 20 -7 11 -19 20 -27 20 -11 0 -12 3 -4 11 7 7 21 6 46 -4
34 -15 36 -14 59 11 76 87 80 160 6 121 -26 -14 -38 -1 -15 15 19 15 166 13
372 -4z m844 -32 c26 -8 30 -13 19 -19 -14 -8 -148 26 -148 38 0 7 86 -5 129
-19z m127 -32 c22 -7 63 -17 92 -21 57 -7 74 -20 41 -28 -12 -3 -18 -10 -14
-16 11 -18 37 -12 42 9 7 27 29 19 26 -8 -2 -13 5 -26 17 -32 11 -6 20 -16 20
-22 0 -15 -138 -5 -170 12 l-25 13 35 15 c23 10 30 16 20 20 -8 2 -25 13 -36
24 -12 10 -25 18 -30 17 -17 -4 -84 13 -84 22 0 13 21 11 66 -5z m394 -97 c14
0 19 -3 11 -6 -7 -3 -39 0 -70 6 -80 17 -91 21 -91 31 0 4 28 0 63 -11 34 -10
73 -19 87 -20z m109 -25 c2 -2 -12 -4 -32 -4 -20 0 -38 4 -42 9 -5 9 64 4 74
-5z m34 -31 c-7 -2 -19 -2 -25 0 -7 3 -2 5 12 5 14 0 19 -2 13 -5z m120 -30
c-7 -2 -19 -2 -25 0 -7 3 -2 5 12 5 14 0 19 -2 13 -5z m-1793 -573 c0 -5 -2
-10 -4 -10 -3 0 -8 5 -11 10 -3 6 -1 10 4 10 6 0 11 -4 11 -10z m125 -66 c42
-25 74 -48 72 -51 -5 -4 -157 85 -157 93 0 8 11 3 85 -42z m-31 -24 c22 -13
34 -26 27 -28 -13 -4 -131 68 -131 81 0 7 32 -9 104 -53z m-449 21 c-9 -18
-11 -32 -5 -36 14 -9 44 -75 37 -82 -15 -14 -67 59 -67 94 0 24 20 53 36 53
13 0 13 -3 -1 -29z m1615 6 c13 -5 13 -6 -1 -6 -8 -1 -24 6 -35 15 -19 15 -19
15 1 6 11 -5 27 -12 35 -15z m-63 -13 c32 -15 53 -28 47 -31 -7 -2 -38 10 -70
26 -72 37 -56 41 23 5z m110 -10 c-3 -3 -12 -4 -19 -1 -8 3 -5 6 6 6 11 1 17
-2 13 -5z m-1112 -64 c3 -5 1 -10 -4 -10 -6 0 -11 5 -11 10 0 6 2 10 4 10 3 0
8 -4 11 -10z m70 0 c3 -6 -1 -7 -9 -4 -18 7 -21 14 -7 14 6 0 13 -4 16 -10z
m1088 3 c-7 -2 -21 -2 -30 0 -10 3 -4 5 12 5 17 0 24 -2 18 -5z m-1033 -85 c0
-10 -25 2 -55 26 -17 14 -14 14 18 -1 20 -9 37 -21 37 -25z m1155 32 c3 -5 2
-10 -4 -10 -5 0 -13 5 -16 10 -3 6 -2 10 4 10 5 0 13 -4 16 -10z m-1425 -24
c5 -13 14 -27 19 -31 18 -11 12 -25 -15 -36 -15 -5 -24 -12 -21 -16 3 -3 -3
-13 -15 -23 -26 -21 -18 -50 13 -50 17 0 20 5 17 25 -4 17 -1 25 8 25 8 0 14
-5 14 -11 0 -6 6 -9 14 -6 22 9 37 -13 25 -35 -7 -13 -20 -19 -37 -18 -15 1
-31 1 -37 0 -5 -1 -36 -1 -68 0 -32 1 -64 -3 -71 -9 -14 -12 -46 -5 -46 10 0
5 -8 9 -17 10 -14 0 -15 2 -3 6 8 3 23 14 32 24 10 9 27 24 39 33 15 10 19 20
14 33 -6 17 -8 16 -22 -4 -9 -13 -19 -23 -24 -23 -10 0 39 83 52 88 5 2 9 9 9
17 0 8 18 13 55 14 50 1 56 -2 65 -23z m491 -73 c74 -36 145 -75 158 -85 l24
-18 -27 0 c-33 0 -82 24 -89 45 -7 17 -47 21 -47 5 0 -6 19 -19 43 -30 l42
-19 -47 0 c-26 -1 -50 4 -53 10 -4 6 -14 8 -22 5 -8 -3 -11 -1 -8 4 4 6 -2 14
-12 18 -11 4 -38 21 -61 37 -34 25 -42 36 -42 63 0 17 2 32 3 32 2 0 64 -30
138 -67z m-1267 -25 c47 -46 86 -86 86 -90 0 -5 -24 -6 -52 -5 -47 3 -58 9
-97 45 -35 34 -41 45 -31 57 8 10 8 19 1 34 -13 24 -14 41 -3 41 5 0 48 -37
96 -82z m381 33 c3 -2 14 4 25 14 27 24 36 12 23 -28 -6 -17 -14 -49 -18 -70
-5 -32 -10 -38 -28 -35 -14 2 -22 10 -22 23 -1 19 -10 69 -22 109 -3 12 -1 16
6 12 6 -4 11 0 12 11 0 13 3 12 10 -7 6 -13 12 -26 14 -29z m685 -1 c0 -11 -4
-20 -10 -20 -5 0 -10 9 -10 20 0 11 5 20 10 20 6 0 10 -9 10 -20z m495 -179
c11 -10 27 -21 35 -25 33 -15 94 -56 84 -56 -13 0 -121 55 -143 73 -9 7 -28
18 -43 25 -16 6 -28 16 -28 21 0 13 69 -15 95 -38z m-1405 -8 c0 -7 3 -13 8
-13 4 0 45 -34 92 -74 46 -41 89 -72 94 -69 5 4 6 1 2 -5 -4 -7 -1 -12 8 -12
9 0 16 -7 16 -15 0 -8 4 -15 9 -15 4 0 22 -13 39 -30 37 -35 52 -38 45 -10 -4
15 0 20 16 20 22 0 30 -33 11 -45 -12 -7 -13 -25 -2 -25 4 0 15 12 25 25 14
19 15 29 7 45 -6 11 -17 20 -26 20 -20 0 -36 45 -25 73 5 12 19 32 30 45 12
12 19 22 16 22 -3 0 3 9 14 21 17 18 30 21 117 20 54 -1 102 -5 107 -10 5 -5
0 -18 -13 -31 -12 -12 -23 -36 -23 -53 -2 -27 -6 -33 -29 -35 -26 -3 -41 -22
-18 -22 16 0 11 -27 -6 -34 -9 -3 -14 -12 -11 -19 6 -19 -50 -48 -78 -41 -15
4 -25 2 -25 -5 0 -6 3 -11 8 -12 4 0 17 -2 28 -3 12 -1 29 -9 37 -18 14 -13
10 -14 -35 -10 -39 4 -53 1 -59 -11 -7 -12 -23 -15 -69 -13 -68 2 -49 -12
-243 184 -67 68 -123 127 -125 132 -7 20 15 8 63 -35 77 -69 79 -53 3 21 -73
71 -86 93 -38 66 16 -9 30 -23 30 -29z m1286 34 c15 -14 -7 -19 -52 -12 -32 4
-43 9 -34 15 16 10 76 7 86 -3z m-1372 -3 c19 -7 22 -34 4 -34 -7 0 -21 7 -31
14 -14 11 -15 15 -5 19 7 3 14 6 15 6 1 1 8 -2 17 -5z m553 -9 c2 -6 -15 -8
-44 -6 -44 4 -46 5 -18 12 38 9 57 7 62 -6z m168 5 c13 -6 -10 -8 -65 -8 -79
1 -81 2 -30 8 30 4 60 7 65 8 6 0 19 -3 30 -8z m758 -63 c20 -11 37 -24 37
-29 0 -4 7 -8 15 -8 9 0 21 -5 28 -10 23 -20 88 -60 96 -60 5 0 14 -7 21 -15
18 -22 10 -19 -71 25 -41 22 -99 52 -129 67 -54 26 -80 45 -80 58 0 9 39 -4
83 -28z m217 -83 c0 -8 -65 25 -68 35 -2 6 12 2 32 -10 20 -11 36 -23 36 -25z
m70 -34 c8 -5 11 -10 5 -10 -5 0 -17 5 -25 10 -8 5 -10 10 -5 10 6 0 17 -5 25
-10z m70 -46 c0 -2 -9 0 -20 6 -11 6 -20 13 -20 16 0 2 9 0 20 -6 11 -6 20
-13 20 -16z m-90 -4 c8 -5 11 -10 5 -10 -5 0 -17 5 -25 10 -8 5 -10 10 -5 10
6 0 17 -5 25 -10z m55 -30 c8 -13 -5 -13 -25 0 -13 8 -13 10 2 10 9 0 20 -4
23 -10z m-1533 -84 c20 -15 14 -26 -14 -26 -11 0 -18 7 -18 20 0 23 8 25 32 6z
m252 -74 c33 -36 55 -58 176 -173 69 -65 120 -119 115 -119 -6 0 -38 26 -71
58 -33 31 -84 77 -114 102 -30 25 -70 61 -89 80 -46 47 -73 60 -86 42 -14 -17
-65 -6 -65 14 0 10 10 14 35 12 19 -1 37 1 40 4 9 9 42 -2 59 -20z m-3 -69
c19 -16 44 -37 55 -48 11 -11 82 -80 158 -154 75 -73 135 -135 133 -138 -3 -2
-29 18 -58 45 -30 27 -70 62 -89 78 -19 16 -53 46 -75 67 -21 22 -72 66 -112
100 -39 33 -70 64 -67 69 8 13 19 9 55 -19z m-461 -241 l-20 -60 29 -71 c19
-44 26 -73 19 -77 -13 -8 -21 2 -46 62 -26 62 -39 134 -24 134 6 0 14 15 17
33 4 17 12 41 17 51 9 17 12 17 19 4 6 -10 1 -38 -11 -76z m909 -186 c19 -20
31 -36 25 -36 -10 1 -56 42 -94 85 l-25 29 30 -21 c17 -12 46 -37 64 -57z"/>
<path d="M6665 6320 c-3 -5 -1 -10 4 -10 6 0 11 5 11 10 0 6 -2 10 -4 10 -3 0
-8 -4 -11 -10z"/>
<path d="M7910 2045 c0 -14 18 -30 65 -54 35 -19 67 -32 70 -29 3 3 -23 22
-57 43 -35 21 -66 43 -70 49 -5 6 -8 3 -8 -9z"/>
<path d="M7005 1700 c3 -5 10 -10 16 -10 5 0 9 5 9 10 0 6 -7 10 -16 10 -8 0
-12 -4 -9 -10z"/>
<path d="M7079 1634 c30 -27 58 -51 64 -53 20 -8 -29 47 -63 70 -58 39 -58 35
-1 -17z"/>
<path d="M7273 1663 c9 -2 25 -2 35 0 9 3 1 5 -18 5 -19 0 -27 -2 -17 -5z"/>
<path d="M7336 1632 c-6 -10 22 -47 30 -40 3 4 3 16 -1 27 -6 21 -20 27 -29
13z"/>
<path d="M7160 1560 c0 -5 5 -10 10 -10 6 0 10 5 10 10 0 6 -4 10 -10 10 -5 0
-10 -4 -10 -10z"/>
<path d="M5380 8469 c0 -11 5 -17 10 -14 6 3 10 13 10 21 0 8 -4 14 -10 14 -5
0 -10 -9 -10 -21z"/>
<path d="M5382 8284 c4 -21 22 -23 26 -1 2 10 -3 17 -13 17 -10 0 -15 -6 -13
-16z"/>
<path d="M5380 7811 c0 -6 5 -13 10 -16 6 -3 10 1 10 9 0 9 -4 16 -10 16 -5 0
-10 -4 -10 -9z"/>
<path d="M5380 7400 c0 -5 5 -10 10 -10 6 0 10 5 10 10 0 6 -4 10 -10 10 -5 0
-10 -4 -10 -10z"/>
<path d="M5382 7140 c0 -19 2 -27 5 -17 2 9 2 25 0 35 -3 9 -5 1 -5 -18z"/>
<path d="M5385 6841 c-3 -5 -1 -12 5 -16 5 -3 10 1 10 9 0 18 -6 21 -15 7z"/>
<path d="M5408 6713 c7 -3 16 -2 19 1 4 3 -2 6 -13 5 -11 0 -14 -3 -6 -6z"/>
<path d="M5376 6641 c-4 -7 -5 -15 -2 -18 9 -9 19 4 14 18 -4 11 -6 11 -12 0z"/>
<path d="M5375 6131 c-3 -5 -1 -12 5 -16 5 -3 10 1 10 9 0 18 -6 21 -15 7z"/>
<path d="M5997 5964 c-4 -4 -7 -17 -7 -28 1 -19 1 -20 11 -3 11 19 8 43 -4 31z"/>
<path d="M5991 5873 c0 -5 4 -17 9 -28 8 -18 9 -17 9 8 1 15 -3 27 -9 27 -5 0
-10 -3 -9 -7z"/>
<path d="M5660 5560 c0 -5 7 -10 16 -10 8 0 12 5 9 10 -3 6 -10 10 -16 10 -5
0 -9 -4 -9 -10z"/>
<path d="M4067 5513 c-4 -3 -7 -24 -7 -45 0 -27 4 -38 15 -38 10 0 15 10 15
33 0 35 -12 61 -23 50z"/>
<path d="M6000 5338 c0 -7 5 -20 10 -28 8 -12 10 -9 10 13 0 15 -4 27 -10 27
-5 0 -10 -6 -10 -12z"/>
<path d="M5835 5310 c-3 -5 -1 -10 4 -10 6 0 11 5 11 10 0 6 -2 10 -4 10 -3 0
-8 -4 -11 -10z"/>
<path d="M5920 5306 c0 -9 7 -16 16 -16 9 0 14 5 12 12 -6 18 -28 21 -28 4z"/>
<path d="M3540 5070 c0 -11 10 -26 23 -34 28 -18 81 -10 73 11 -3 8 -6 17 -6
19 0 2 -7 4 -15 4 -8 0 -15 5 -15 10 0 6 -13 10 -30 10 -23 0 -30 -4 -30 -20z"/>
<path d="M5805 5065 c-3 -8 -7 -22 -10 -31 -3 -8 0 -24 5 -35 14 -26 80 -26
103 -1 24 26 21 34 -16 60 -38 25 -76 29 -82 7z"/>
<path d="M6015 4900 c3 -5 8 -10 11 -10 2 0 4 5 4 10 0 6 -5 10 -11 10 -5 0
-7 -4 -4 -10z"/>
<path d="M3624 4698 c-9 -15 27 -41 39 -29 13 13 1 41 -17 41 -8 0 -18 -5 -22
-12z"/>
<path d="M6447 4683 c-4 -3 -7 -13 -7 -22 1 -13 3 -13 11 2 11 19 8 33 -4 20z"/>
<path d="M3975 4630 c-7 -12 2 -30 16 -30 5 0 9 9 9 20 0 21 -15 27 -25 10z"/>
<path d="M7680 4549 c0 -5 5 -7 10 -4 6 3 10 8 10 11 0 2 -4 4 -10 4 -5 0 -10
-5 -10 -11z"/>
<path d="M3587 4442 c-9 -2 -17 -7 -18 -10 0 -4 -2 -20 -4 -37 -5 -36 9 -56
52 -78 48 -25 67 -22 59 8 -5 21 -3 25 17 25 37 0 87 20 87 35 0 25 -70 59
-125 59 -28 1 -59 0 -68 -2z"/>
<path d="M3694 4224 c-4 -17 -2 -29 7 -35 23 -14 39 -10 39 10 0 52 -35 71
-46 25z"/>
<path d="M3479 4114 c-10 -13 -10 -17 1 -24 17 -10 30 -4 30 15 0 22 -16 26
-31 9z"/>
<path d="M7280 3974 c0 -8 45 -84 49 -84 3 1 40 19 81 40 48 25 68 40 55 41
-29 3 -185 5 -185 3z"/>
<path d="M4190 3755 c-10 -12 -10 -15 3 -15 19 0 31 16 18 24 -5 3 -14 -1 -21
-9z"/>
<path d="M3987 3393 c-12 -11 -8 -23 8 -23 8 0 15 7 15 15 0 16 -12 20 -23 8z"/>
<path d="M4066 3375 l-16 -25 55 0 c38 0 55 4 55 13 0 42 -69 51 -94 12z"/>
<path d="M4187 3383 c-12 -12 -7 -21 14 -26 17 -5 18 -3 7 11 -7 9 -13 18 -14
20 0 1 -4 -1 -7 -5z"/>
<path d="M3958 3353 c7 -3 16 -2 19 1 4 3 -2 6 -13 5 -11 0 -14 -3 -6 -6z"/>
<path d="M3745 3330 c-11 -17 5 -32 21 -19 7 6 11 15 8 20 -7 12 -21 11 -29
-1z"/>
<path d="M4032 3328 c-16 -16 -15 -26 3 -45 8 -8 13 -18 10 -23 -3 -4 4 -10
15 -13 22 -6 28 8 8 16 -16 6 0 12 57 23 30 6 34 9 18 12 -13 2 -23 8 -23 13
0 5 10 9 23 10 21 0 21 1 2 9 -30 13 -99 12 -113 -2z m28 -18 c0 -5 -5 -10
-11 -10 -5 0 -7 5 -4 10 3 6 8 10 11 10 2 0 4 -4 4 -10z"/>
<path d="M3855 3300 c-3 -5 1 -13 10 -16 22 -9 29 1 11 15 -10 8 -16 9 -21 1z"/>
<path d="M3815 3290 c4 -6 11 -8 16 -5 14 9 11 15 -7 15 -8 0 -12 -5 -9 -10z"/>
<path d="M4240 3284 c0 -9 7 -14 17 -12 25 5 28 28 4 28 -12 0 -21 -6 -21 -16z"/>
<path d="M3756 3273 c-6 -14 -5 -15 5 -6 7 7 10 15 7 18 -3 3 -9 -2 -12 -12z"/>
<path d="M4247 3254 c-15 -8 -27 -16 -27 -18 0 -10 74 0 77 10 6 19 -21 23
-50 8z"/>
<path d="M5380 3065 c-11 -13 -7 -15 26 -14 22 0 32 3 24 6 -8 3 -20 10 -26
14 -7 6 -16 3 -24 -6z"/>
<path d="M0 3060 c0 -5 7 -10 15 -10 8 0 15 5 15 10 0 6 -7 10 -15 10 -8 0
-15 -4 -15 -10z"/>
<path d="M5473 3053 c9 -9 19 -14 23 -11 10 10 -6 28 -24 28 -15 0 -15 -1 1
-17z"/>
<path d="M4180 3050 c0 -5 7 -10 15 -10 8 0 15 5 15 10 0 6 -7 10 -15 10 -8 0
-15 -4 -15 -10z"/>
<path d="M3740 3040 c0 -5 7 -10 15 -10 8 0 15 5 15 10 0 6 -7 10 -15 10 -8 0
-15 -4 -15 -10z"/>
<path d="M5537 3010 c3 -11 11 -20 18 -20 7 0 15 9 18 20 4 16 0 20 -18 20
-18 0 -22 -4 -18 -20z"/>
<path d="M3737 2959 c7 -7 15 -10 18 -7 3 3 -2 9 -12 12 -14 6 -15 5 -6 -5z"/>
<path d="M128 2903 c7 -3 16 -2 19 1 4 3 -2 6 -13 5 -11 0 -14 -3 -6 -6z"/>
<path d="M6242 2893 c-23 -21 -45 -122 -31 -139 5 -7 26 -15 47 -19 20 -4 40
-12 44 -18 3 -6 28 -10 55 -9 41 2 78 8 231 38 29 6 28 20 -3 28 -14 4 -25 11
-25 16 0 6 -25 22 -55 36 -30 15 -55 30 -55 35 0 5 -7 9 -15 9 -8 0 -20 9 -27
20 -11 17 -24 20 -79 20 -49 0 -72 -5 -87 -17z"/>
<path d="M3657 2873 l-15 -28 68 9 c38 5 67 13 64 18 -3 4 0 8 7 8 32 0 -4 11
-54 16 -54 6 -56 5 -70 -23z m100 1 c-3 -3 -12 -4 -19 -1 -8 3 -5 6 6 6 11 1
17 -2 13 -5z"/>
<path d="M3938 2893 c12 -2 32 -2 45 0 12 2 2 4 -23 4 -25 0 -35 -2 -22 -4z"/>
<path d="M5505 2873 c-11 -2 -30 -6 -42 -9 -13 -2 -23 -11 -23 -19 0 -9 -5
-23 -11 -33 -9 -15 -8 -23 7 -40 10 -12 24 -22 32 -22 7 0 29 -7 49 -15 29
-12 33 -18 23 -30 -19 -23 -4 -33 58 -40 31 -4 65 -8 74 -9 37 -5 27 -14 -21
-21 -44 -6 -51 -10 -51 -29 0 -21 2 -22 85 -14 47 4 90 10 95 13 19 12 10 21
-27 32 -34 10 -36 11 -15 18 12 4 22 11 22 16 0 5 11 9 24 9 31 0 56 10 56 21
0 5 -8 9 -18 9 -10 0 -27 6 -38 14 -11 8 -59 18 -107 22 -90 7 -107 17 -59 35
l27 11 -35 18 c-19 10 -34 22 -33 27 2 12 -28 43 -41 42 -6 -1 -20 -3 -31 -6z"/>
<path d="M3968 2863 c7 -3 16 -2 19 1 4 3 -2 6 -13 5 -11 0 -14 -3 -6 -6z"/>
<path d="M3578 2796 c-13 -10 -12 -15 3 -39 9 -16 18 -24 21 -17 2 7 33 12 83
12 68 1 75 3 46 10 -23 6 -30 12 -22 17 9 6 8 10 -6 16 -28 12 -109 13 -125 1z"/>
<path d="M5676 2802 c-2 -4 11 -6 30 -4 19 2 34 6 34 8 0 8 -59 4 -64 -4z"/>
<path d="M4690 2696 c0 -70 17 -99 47 -80 24 15 25 122 2 135 -41 21 -49 12
-49 -55z"/>
<path d="M4795 2647 c-30 -23 -4 -47 52 -47 44 0 67 20 47 40 -18 17 -79 21
-99 7z"/>
<path d="M4772 2578 c-18 -18 -14 -28 12 -28 19 0 23 4 19 20 -6 23 -14 25
-31 8z"/>
<path d="M4042 2553 c-10 -4 -8 -9 7 -20 20 -14 41 -11 41 7 0 4 -10 6 -22 3
-19 -4 -20 -3 -8 6 15 11 5 13 -18 4z"/>
<path d="M4050 2500 c0 -5 4 -10 9 -10 6 0 13 5 16 10 3 6 -1 10 -9 10 -9 0
-16 -4 -16 -10z"/>
<path d="M4260 2468 c0 -23 -7 -26 -93 -39 -62 -9 -79 -16 -92 -35 -12 -19
-24 -24 -55 -24 -23 0 -40 -5 -40 -11 0 -6 7 -8 16 -5 24 9 63 -4 57 -19 -5
-15 47 -119 55 -110 3 3 12 -1 20 -7 12 -10 17 -9 30 10 17 25 32 29 32 7 0
-9 7 -18 15 -21 9 -4 15 -19 15 -36 0 -22 -4 -29 -14 -25 -16 6 -40 -16 -29
-26 3 -4 17 -7 30 -7 13 0 23 -4 23 -10 0 -5 -7 -10 -15 -10 -8 0 -15 -4 -15
-9 0 -13 44 -22 79 -15 34 7 53 24 27 24 -9 0 -16 5 -16 10 0 6 9 10 19 10 26
0 51 10 51 21 0 5 -11 9 -25 9 -16 0 -25 6 -25 15 0 8 3 14 8 14 43 -7 60 40
64 172 l3 104 -53 1 c-35 1 -57 6 -63 15 -7 11 -9 11 -9 -3z"/>
<path d="M3745 2330 c3 -5 8 -10 11 -10 2 0 4 5 4 10 0 6 -5 10 -11 10 -5 0
-7 -4 -4 -10z"/>
<path d="M3831 2321 c-9 -6 -10 -11 -2 -15 6 -4 11 -2 11 4 0 8 19 9 61 4 36
-4 60 -3 56 2 -7 12 -109 16 -126 5z"/>
<path d="M3985 2320 c3 -5 11 -10 16 -10 6 0 7 5 4 10 -3 6 -11 10 -16 10 -6
0 -7 -4 -4 -10z"/>
<path d="M5510 2150 c-12 -8 -9 -10 13 -10 15 0 27 5 27 10 0 13 -20 13 -40 0z"/>
<path d="M4081 2094 c0 -11 3 -14 6 -6 3 7 2 16 -1 19 -3 4 -6 -2 -5 -13z"/>
<path d="M3945 2090 c-4 -6 12 -10 42 -9 36 0 43 3 28 9 -28 12 -63 12 -70 0z"/>
<path d="M4181 2084 c0 -11 3 -14 6 -6 3 7 2 16 -1 19 -3 4 -6 -2 -5 -13z"/>
<path d="M4724 2070 c-44 -17 -89 -93 -99 -165 -3 -27 -8 -61 -10 -73 -2 -13
-10 -31 -18 -40 -26 -30 -89 -215 -94 -277 -3 -33 -9 -64 -13 -70 -13 -18 -21
-158 -12 -213 5 -30 17 -61 26 -70 16 -16 17 -15 11 20 -6 30 -4 39 9 44 8 3
15 16 15 27 -1 37 13 98 32 136 16 32 18 33 19 12 0 -14 7 -33 17 -43 14 -15
14 -24 5 -56 -12 -39 -9 -559 4 -655 4 -36 1 -59 -11 -87 -16 -35 -16 -40 -2
-61 16 -22 17 -147 2 -416 l-4 -83 61 0 c54 0 59 2 52 18 -5 9 -10 123 -11
252 -4 279 -4 225 7 450 22 431 39 467 123 254 25 -66 64 -175 85 -244 53
-167 54 -227 5 -438 -20 -86 -36 -168 -37 -182 -1 -14 -11 -42 -24 -63 -12
-21 -22 -40 -22 -43 0 -2 17 -4 38 -4 l37 0 27 103 c26 102 87 286 112 342 23
50 20 156 -4 203 -12 22 -26 71 -32 109 -6 37 -21 91 -35 119 -13 27 -28 77
-33 110 -13 82 -32 272 -31 314 0 56 12 130 21 130 22 0 33 -38 36 -121 1 -50
5 -93 8 -96 3 -3 3 -17 0 -29 -4 -13 -2 -24 3 -24 23 0 45 43 54 106 20 138 9
241 -42 400 -24 75 -39 105 -61 124 -86 72 -88 75 -88 133 0 116 -52 177 -126
147z"/>
<path d="M5140 1995 c0 -28 21 -33 40 -10 15 18 5 35 -21 35 -14 0 -19 -7 -19
-25z"/>
<path d="M4372 1973 c4 -21 33 -25 33 -3 0 8 -8 16 -18 18 -14 3 -18 -1 -15
-15z"/>
<path d="M3949 1923 c-10 -56 4 -80 27 -48 9 13 10 23 3 36 -10 19 -28 26 -30
12z"/>
<path d="M5498 1853 c7 -3 16 -2 19 1 4 3 -2 6 -13 5 -11 0 -14 -3 -6 -6z"/>
<path d="M4115 1841 c6 -11 5 -11 125 -10 47 0 89 4 95 10 5 5 -35 9 -109 9
-70 0 -115 -4 -111 -9z"/>
<path d="M4120 1779 c0 -5 5 -7 10 -4 6 3 10 8 10 11 0 2 -4 4 -10 4 -5 0 -10
-5 -10 -11z"/>
<path d="M4175 1780 c3 -5 8 -10 11 -10 2 0 4 5 4 10 0 6 -5 10 -11 10 -5 0
-7 -4 -4 -10z"/>
<path d="M4210 1780 c0 -5 5 -10 10 -10 6 0 10 5 10 10 0 6 -4 10 -10 10 -5 0
-10 -4 -10 -10z"/>
<path d="M6303 1453 c9 -2 23 -2 30 0 6 3 -1 5 -18 5 -16 0 -22 -2 -12 -5z"/>
<path d="M6378 1453 c7 -3 16 -2 19 1 4 3 -2 6 -13 5 -11 0 -14 -3 -6 -6z"/>
<path d="M5458 1438 c8 -8 20 -8 44 -1 l33 11 -44 1 c-34 1 -42 -2 -33 -11z"/>
<path d="M4338 1423 c7 -3 16 -2 19 1 4 3 -2 6 -13 5 -11 0 -14 -3 -6 -6z"/>
<path d="M4016 1356 c5 -13 27 -15 54 -3 8 4 51 8 95 10 64 2 57 3 -37 5 -96
2 -116 -1 -112 -12z"/>
<path d="M5533 1133 c-21 -8 -15 -33 12 -45 31 -14 39 -7 31 27 -6 24 -17 29
-43 18z"/>
<path d="M5908 1012 c-42 -25 -31 -70 21 -87 21 -6 22 -5 15 17 -9 29 -9 37 0
66 9 26 0 27 -36 4z"/>
<path d="M6104 925 c-6 -15 11 -45 26 -45 12 0 20 28 14 45 -8 19 -33 19 -40
0z"/>
<path d="M5870 850 c0 -5 11 -10 24 -10 14 0 28 5 31 10 4 6 -7 10 -24 10 -17
0 -31 -4 -31 -10z"/>
<path d="M6098 853 c12 -2 32 -2 45 0 12 2 2 4 -23 4 -25 0 -35 -2 -22 -4z"/>
<path d="M6188 853 c7 -3 16 -2 19 1 4 3 -2 6 -13 5 -11 0 -14 -3 -6 -6z"/>
<path d="M5390 839 c-70 -4 -57 -6 73 -7 110 -1 156 1 152 9 -7 10 -50 10
-225 -2z"/>
<path d="M5660 840 c19 -5 41 -4 50 0 10 6 -1 9 -35 9 -48 -1 -49 -1 -15 -9z"/>
<path d="M5910 770 c-12 -8 -11 -10 8 -10 12 0 22 5 22 10 0 13 -11 13 -30 0z"/>
<path d="M6193 773 c20 -2 54 -2 75 0 20 2 3 4 -38 4 -41 0 -58 -2 -37 -4z"/>
<path d="M3990 754 c-36 -2 -80 -6 -98 -9 -28 -5 -31 -8 -18 -20 16 -16 58
-20 121 -12 22 3 86 8 143 12 105 8 151 25 65 25 -26 0 -70 2 -98 4 -27 2 -79
2 -115 0z"/>
<path d="M3786 245 c-9 -26 -7 -57 4 -50 6 3 10 -1 10 -9 0 -9 5 -16 10 -16
14 0 12 33 -4 64 -11 22 -15 24 -20 11z"/>
<path d="M3832 190 c0 -14 2 -19 5 -12 2 6 2 18 0 25 -3 6 -5 1 -5 -13z"/>
<path d="M3772 134 c0 -27 -8 -63 -16 -79 -22 -42 -20 -55 9 -55 20 0 25 5 25
25 0 14 5 25 12 25 9 0 9 3 0 12 -7 7 -12 28 -13 47 -1 60 -15 81 -17 25z"/>
<path d="M3822 80 c0 -19 2 -27 5 -17 2 9 2 25 0 35 -3 9 -5 1 -5 -18z"/>
<path d="M3838 35 c-4 -31 -1 -35 19 -35 20 0 23 5 23 35 0 28 -4 35 -19 35
-14 0 -20 -9 -23 -35z"/>
</g>
</svg>
